<svg width="115" height="16" viewBox="0 0 115 16" fill="none" xmlns="http://www.w3.org/2000/svg">
<path id="Vector" d="M3.95725 2.579H0V0.712624H10.1319V2.579H6.17467V12.5896H3.95725V2.579ZM13.4046 4.8526C14.0187 3.90244 15.0989 3.42736 16.6455 3.42736V5.44645C16.4635 5.41251 16.2986 5.39555 16.1508 5.39555C15.3207 5.39555 14.6725 5.63892 14.2063 6.12513C13.7401 6.60021 13.507 7.29003 13.507 8.19512V12.5896H11.3748V3.52916H13.4046V4.8526ZM21.8839 3.42736C23.2257 3.42736 24.2491 3.74974 24.9542 4.39449C25.6706 5.02811 26.0288 5.98939 26.0288 7.27889V12.5896H24.016V11.4867C23.7545 11.8828 23.3792 12.1882 22.8902 12.403C22.4127 12.6066 21.8327 12.7084 21.1504 12.7084C20.4681 12.7084 19.8711 12.5954 19.3594 12.369C18.8477 12.1315 18.4497 11.8091 18.1654 11.4019C17.8925 10.9836 17.7561 10.5138 17.7561 9.99364C17.7561 9.17922 18.0574 8.52863 18.6601 8.04241C19.2741 7.54454 20.235 7.29587 21.5427 7.29587H23.8966V7.16012C23.8966 6.52651 23.7033 6.04029 23.3167 5.70095C22.9414 5.36161 22.3785 5.19194 21.628 5.19194C21.1163 5.19194 20.6103 5.27095 20.1099 5.42948C19.6209 5.58802 19.2059 5.80859 18.8648 6.0912L18.029 4.54719C18.5066 4.18505 19.0808 3.90828 19.7517 3.71581C20.4226 3.52333 21.1334 3.42736 21.8839 3.42736ZM21.5939 11.1644C22.1283 11.1644 22.6003 11.0456 23.0097 10.8081C23.4304 10.5594 23.726 10.2084 23.8966 9.7561V8.70413H21.6963C20.4681 8.70413 19.8541 9.10551 19.8541 9.9088C19.8541 10.2932 20.0076 10.5986 20.3146 10.825C20.6217 11.0514 21.0481 11.1644 21.5939 11.1644ZM37.1271 3.52916L33.221 12.5896H31.0206L27.1145 3.52916H29.3319L32.1634 10.2481L35.0802 3.52916H37.1271ZM46.7727 8.11029C46.7727 8.25716 46.761 8.46659 46.7386 8.73806H39.5917C39.7164 9.40562 40.0405 9.9369 40.5639 10.333C41.098 10.7174 41.7579 10.9099 42.5425 10.9099C43.543 10.9099 44.3676 10.5817 45.0158 9.92577L46.1586 11.2322C45.7493 11.7185 45.2317 12.0864 44.6064 12.3351C43.9807 12.5838 43.276 12.7084 42.4914 12.7084C41.4903 12.7084 40.6092 12.5106 39.8475 12.1145C39.0853 11.7185 38.4941 11.1702 38.0736 10.4687C37.6642 9.7561 37.4595 8.95281 37.4595 8.05938C37.4595 7.17709 37.6583 6.38547 38.0565 5.68399C38.4659 4.97137 39.0288 4.41728 39.7452 4.02121C40.4616 3.62513 41.2686 3.42736 42.1673 3.42736C43.0542 3.42736 43.8442 3.62513 44.5382 4.02121C45.2429 4.40562 45.7887 4.9544 46.1757 5.66702C46.5733 6.3685 46.7727 7.18293 46.7727 8.11029ZM42.1673 5.12407C41.485 5.12407 40.905 5.32768 40.4274 5.73489C39.961 6.13097 39.6769 6.66225 39.5746 7.3298H44.7429C44.6517 6.67391 44.373 6.1421 43.9071 5.73489C43.4407 5.32768 42.8608 5.12407 42.1673 5.12407ZM48.8206 0H50.9527V12.5896H48.8206V0ZM67.1303 6.41358C67.7897 6.62832 68.3126 6.99045 68.6996 7.49947C69.086 7.99734 69.2795 8.6193 69.2795 9.36585C69.2795 10.395 68.8814 11.1925 68.0855 11.7582C67.2892 12.3123 66.1293 12.5896 64.6059 12.5896H58.67V0.712624H64.2647C65.6746 0.712624 66.7604 0.989927 67.5227 1.54401C68.2844 2.08696 68.6655 2.83934 68.6655 3.80063C68.6655 4.38865 68.529 4.90933 68.2561 5.36161C67.9832 5.81389 67.6079 6.1649 67.1303 6.41358ZM60.8874 2.44327V5.71792H64.0259C64.7988 5.71792 65.3905 5.58219 65.7999 5.31071C66.2205 5.0281 66.431 4.62089 66.431 4.08908C66.431 3.54613 66.2205 3.13892 65.7999 2.86745C65.3905 2.58484 64.7988 2.44327 64.0259 2.44327H60.8874ZM64.4694 10.859C66.1863 10.859 67.0451 10.2879 67.0451 9.14528C67.0451 8.00265 66.1863 7.4316 64.4694 7.4316H60.8874V10.859H64.4694ZM80.2595 3.52916V12.5896H78.2297V11.4358C77.8886 11.8431 77.4621 12.1596 76.9504 12.386C76.4387 12.6007 75.8876 12.7084 75.2959 12.7084C74.0795 12.7084 73.1184 12.3749 72.4132 11.7073C71.7198 11.0286 71.3727 10.0276 71.3727 8.70413V3.52916H73.5049V8.4157C73.5049 9.23012 73.6872 9.84093 74.0507 10.2481C74.426 10.6442 74.9547 10.842 75.637 10.842C76.3993 10.842 77.0016 10.6103 77.4451 10.1463C77.9003 9.67126 78.1274 8.99258 78.1274 8.11029V3.52916H80.2595ZM91.9724 0V12.5896H89.9255V11.4189C89.5727 11.8489 89.1351 12.1713 88.6122 12.386C88.1004 12.6007 87.5317 12.7084 86.9064 12.7084C86.0307 12.7084 85.2402 12.5159 84.5355 12.1315C83.8415 11.7471 83.2957 11.2041 82.898 10.5026C82.4998 9.79003 82.301 8.97561 82.301 8.05938C82.301 7.14316 82.4998 6.33457 82.898 5.63309C83.2957 4.9316 83.8415 4.38865 84.5355 4.00424C85.2402 3.61983 86.0307 3.42736 86.9064 3.42736C87.5088 3.42736 88.0605 3.52917 88.561 3.73277C89.061 3.93638 89.4874 4.24178 89.8403 4.64899V0H91.9724ZM87.1623 10.8929C87.674 10.8929 88.1346 10.78 88.5439 10.5536C88.9533 10.316 89.2774 9.9825 89.5162 9.55249C89.755 9.12248 89.8744 8.62513 89.8744 8.05938C89.8744 7.49363 89.755 6.99629 89.5162 6.56628C89.2774 6.13627 88.9533 5.80859 88.5439 5.58218C88.1346 5.34464 87.674 5.22587 87.1623 5.22587C86.6506 5.22587 86.19 5.34464 85.7807 5.58218C85.3713 5.80859 85.0472 6.13627 84.8084 6.56628C84.5696 6.99629 84.4502 7.49363 84.4502 8.05938C84.4502 8.62513 84.5696 9.12248 84.8084 9.55249C85.0472 9.9825 85.3713 10.316 85.7807 10.5536C86.19 10.78 86.6506 10.8929 87.1623 10.8929ZM103.682 0V12.5896H101.635V11.4189C101.283 11.8489 100.845 12.1713 100.322 12.386C99.8101 12.6007 99.2419 12.7084 98.6161 12.7084C97.7409 12.7084 96.9504 12.5159 96.2452 12.1315C95.5517 11.7471 95.0059 11.2041 94.6077 10.5026C94.2101 9.79003 94.0107 8.97561 94.0107 8.05938C94.0107 7.14316 94.2101 6.33457 94.6077 5.63309C95.0059 4.9316 95.5517 4.38865 96.2452 4.00424C96.9504 3.61983 97.7409 3.42736 98.6161 3.42736C99.219 3.42736 99.7707 3.52917 100.271 3.73277C100.771 3.93638 101.198 4.24178 101.55 4.64899V0H103.682ZM98.872 10.8929C99.3837 10.8929 99.8442 10.78 100.254 10.5536C100.663 10.316 100.987 9.9825 101.226 9.55249C101.465 9.12248 101.584 8.62513 101.584 8.05938C101.584 7.49363 101.465 6.99629 101.226 6.56628C100.987 6.13627 100.663 5.80859 100.254 5.58218C99.8442 5.34464 99.3837 5.22587 98.872 5.22587C98.3603 5.22587 97.8997 5.34464 97.4904 5.58218C97.081 5.80859 96.7569 6.13627 96.5181 6.56628C96.2793 6.99629 96.1599 7.49363 96.1599 8.05938C96.1599 8.62513 96.2793 9.12248 96.5181 9.55249C96.7569 9.9825 97.081 10.316 97.4904 10.5536C97.8997 10.78 98.3603 10.8929 98.872 10.8929ZM115 3.52916L110.736 13.3192C110.338 14.3033 109.855 14.9931 109.286 15.3892C108.717 15.7964 108.03 16 107.222 16C106.767 16 106.318 15.9263 105.874 15.7794C105.431 15.6326 105.067 15.4289 104.783 15.1686L105.636 13.6076C105.84 13.8001 106.079 13.9528 106.352 14.0657C106.636 14.1787 106.921 14.2354 107.205 14.2354C107.58 14.2354 107.887 14.1394 108.126 13.947C108.376 13.7545 108.604 13.4321 108.808 12.9798L108.962 12.6235L104.987 3.52916H107.205L110.071 10.2312L112.953 3.52916H115Z" fill="#041562"/>
</svg>
